<?xml version="1.0" encoding="UTF-8" standalone="no"?>
<!DOCTYPE svg PUBLIC "-//W3C//DTD SVG 1.1//EN" "http://www.w3.org/Graphics/SVG/1.1/DTD/svg11.dtd">
<svg width="100%" height="100%" viewBox="0 0 5719 3051" version="1.1" xmlns="http://www.w3.org/2000/svg" xmlns:xlink="http://www.w3.org/1999/xlink" xml:space="preserve" xmlns:serif="http://www.serif.com/" style="fill-rule:evenodd;clip-rule:evenodd;stroke-linecap:round;stroke-linejoin:round;stroke-miterlimit:1.5;">
    <g transform="matrix(1,0,0,1,-2022.79,-4397.92)">
        <path d="M2123.83,4498.97L2123.83,7347.74L7640.57,7347.74" style="fill:none;stroke:black;stroke-width:202.08px;"/>
        <path d="M7640.57,7347.74C7350.08,7283.18 6835.35,7356.01 5980.03,5253.82C5901.97,5080.01 5769.9,4633.07 5494.21,4640.37C5292.95,4645.69 5303.79,4846.64 4966.53,4861.45C4764.94,4870.3 4796.07,4790.69 4561.35,4807.07C4326.62,4823.45 4291.22,5014.25 4154.61,5094.43C3920.88,5231.61 3954.85,5257.2 3834.75,5429.15C3714.66,5601.1 3591.95,6253.42 3452.75,6253.42C3313.55,6253.42 3205.31,5312.26 3078.72,4498.97C2742.46,6679.75 3033.65,7471.27 2123.83,7304.23" style="fill:none;stroke:black;stroke-width:202.01px;"/>
    </g>
</svg>
